<?xml version="1.0" encoding="UTF-8"?>
<svg xmlns="http://www.w3.org/2000/svg" viewBox="0 0 735 729" role="img" aria-label="Locus logo">
<g fill="#FFFFFF" fill-rule="evenodd"><path d="M 11 408 L 12 413 L 17 417 L 27 422 L 29 424 L 33 425 L 36 428 L 41 430 L 48 435 L 53 437 L 55 439 L 60 441 L 62 443 L 74 449 L 81 454 L 91 459 L 96 463 L 98 463 L 100 465 L 105 467 L 108 470 L 112 471 L 115 474 L 127 480 L 129 482 L 139 487 L 141 489 L 145 490 L 148 493 L 151 494 L 153 496 L 160 499 L 162 501 L 172 506 L 174 508 L 177 509 L 187 516 L 191 517 L 194 520 L 198 521 L 201 524 L 204 525 L 206 527 L 211 529 L 213 531 L 218 533 L 220 535 L 225 537 L 227 539 L 230 540 L 232 542 L 236 544 L 242 544 L 246 542 L 253 537 L 263 532 L 266 529 L 270 528 L 273 525 L 278 523 L 280 521 L 285 519 L 287 517 L 292 515 L 294 513 L 299 511 L 301 509 L 303 509 L 308 505 L 310 505 L 313 502 L 317 501 L 320 498 L 322 498 L 332 491 L 337 489 L 339 487 L 344 485 L 346 483 L 358 477 L 365 472 L 377 466 L 380 463 L 382 463 L 387 459 L 389 459 L 392 456 L 402 451 L 405 448 L 409 447 L 412 444 L 416 443 L 418 441 L 423 439 L 425 437 L 429 436 L 432 433 L 436 432 L 438 430 L 450 424 L 453 421 L 463 416 L 465 412 L 461 407 L 456 405 L 454 403 L 442 397 L 435 392 L 430 390 L 428 388 L 416 382 L 409 377 L 404 375 L 402 373 L 397 371 L 395 369 L 390 367 L 388 365 L 376 359 L 369 354 L 364 352 L 361 349 L 359 349 L 356 346 L 342 339 L 339 339 L 334 345 L 334 346 L 326 354 L 326 355 L 322 358 L 321 360 L 320 360 L 307 371 L 304 372 L 295 379 L 293 379 L 289 381 L 287 383 L 285 383 L 284 384 L 282 384 L 280 386 L 274 387 L 273 388 L 270 388 L 267 390 L 264 390 L 263 391 L 256 391 L 255 392 L 245 392 L 244 393 L 232 393 L 231 392 L 222 392 L 221 391 L 215 391 L 214 390 L 211 390 L 204 387 L 201 387 L 194 383 L 190 382 L 183 377 L 178 375 L 175 372 L 174 372 L 171 369 L 170 369 L 163 363 L 162 363 L 161 361 L 160 361 L 149 350 L 149 349 L 146 347 L 141 339 L 136 335 L 133 337 L 131 337 L 126 341 L 124 341 L 122 343 L 115 346 L 108 351 L 103 353 L 101 355 L 96 357 L 94 359 L 89 361 L 87 363 L 82 365 L 80 367 L 68 373 L 61 378 L 54 381 L 52 383 L 48 384 L 45 387 L 41 388 L 39 390 L 36 391 L 33 394 L 28 396 L 26 398 L 22 399 L 19 402 L 17 402 L 15 404 L 14 404 Z M 225 10 L 219 10 L 215 12 L 213 14 L 209 15 L 206 18 L 202 19 L 199 22 L 194 24 L 192 26 L 188 27 L 185 30 L 181 31 L 179 33 L 167 39 L 165 41 L 155 46 L 153 48 L 146 51 L 144 53 L 140 54 L 137 57 L 135 57 L 130 61 L 126 62 L 124 64 L 119 66 L 117 68 L 113 69 L 110 72 L 106 73 L 103 76 L 101 76 L 96 80 L 94 80 L 90 83 L 85 85 L 83 87 L 79 88 L 76 91 L 72 92 L 69 95 L 66 96 L 64 98 L 59 100 L 57 102 L 52 104 L 45 109 L 40 111 L 38 113 L 33 115 L 31 117 L 24 120 L 22 122 L 17 124 L 15 126 L 12 127 L 10 129 L 5 131 L 2 134 L 1 134 L 0 136 L 0 384 L 2 386 L 5 386 L 7 385 L 10 382 L 13 381 L 15 379 L 20 377 L 22 375 L 27 373 L 29 371 L 33 370 L 35 368 L 40 366 L 42 364 L 47 362 L 49 360 L 61 354 L 68 349 L 73 347 L 75 345 L 80 343 L 82 341 L 87 339 L 89 337 L 94 335 L 96 333 L 101 331 L 103 329 L 107 328 L 109 326 L 121 320 L 128 315 L 128 313 L 129 312 L 127 309 L 127 306 L 126 305 L 126 299 L 125 298 L 125 293 L 124 292 L 124 288 L 123 287 L 123 268 L 124 267 L 124 260 L 125 259 L 125 255 L 126 254 L 126 249 L 127 248 L 127 246 L 130 239 L 131 233 L 133 231 L 134 226 L 137 222 L 138 218 L 140 216 L 142 211 L 148 204 L 150 200 L 163 187 L 164 187 L 173 179 L 176 178 L 182 173 L 200 164 L 205 163 L 211 160 L 220 159 L 221 158 L 225 157 L 227 155 L 227 127 L 228 126 L 228 15 L 227 14 L 227 12 Z M 250 0 L 249 2 L 249 9 L 248 10 L 248 147 L 249 148 L 249 151 L 256 156 L 259 156 L 264 159 L 271 160 L 277 163 L 283 164 L 285 166 L 291 168 L 293 170 L 303 175 L 306 178 L 309 179 L 327 196 L 327 197 L 331 201 L 331 202 L 334 204 L 335 207 L 341 215 L 343 220 L 346 224 L 347 228 L 349 230 L 350 236 L 351 237 L 351 239 L 353 243 L 353 246 L 354 247 L 354 252 L 355 253 L 355 256 L 356 257 L 356 262 L 357 263 L 357 289 L 356 290 L 356 294 L 355 295 L 355 298 L 354 299 L 354 305 L 353 306 L 353 309 L 350 315 L 350 318 L 351 320 L 355 322 L 358 325 L 360 325 L 363 328 L 365 328 L 369 330 L 371 332 L 375 333 L 378 336 L 382 337 L 384 339 L 389 341 L 392 344 L 396 345 L 398 347 L 403 349 L 405 351 L 417 357 L 424 362 L 436 368 L 438 370 L 441 371 L 444 374 L 448 375 L 451 378 L 456 380 L 458 382 L 460 382 L 470 389 L 474 390 L 477 392 L 482 391 L 484 389 L 486 385 L 486 135 L 482 130 L 479 129 L 477 127 L 472 125 L 470 123 L 458 117 L 451 112 L 446 110 L 444 108 L 439 106 L 437 104 L 425 98 L 423 96 L 413 91 L 411 89 L 406 87 L 404 85 L 399 83 L 397 81 L 393 80 L 390 77 L 386 76 L 383 73 L 378 71 L 376 69 L 371 67 L 369 65 L 365 64 L 362 61 L 360 61 L 356 58 L 351 56 L 349 54 L 344 52 L 342 50 L 338 49 L 335 46 L 325 41 L 322 38 L 320 38 L 316 35 L 311 33 L 309 31 L 305 30 L 302 27 L 298 26 L 295 23 L 290 21 L 288 19 L 280 15 L 270 8 L 265 6 L 263 4 L 258 2 L 256 0 Z" transform="translate(124.000 0)"/><path d="M 659 3 L 649 13 L 646 18 L 646 39 L 649 44 L 662 55 L 665 55 L 666 56 L 671 56 L 672 55 L 713 55 L 714 56 L 716 56 L 719 59 L 722 65 L 722 76 L 719 81 L 713 86 L 664 86 L 659 82 L 658 82 L 657 80 L 655 79 L 651 79 L 646 84 L 647 87 L 659 98 L 717 98 L 718 97 L 720 97 L 721 95 L 723 94 L 733 84 L 733 78 L 734 77 L 734 74 L 733 73 L 734 71 L 734 61 L 733 60 L 733 57 L 732 55 L 731 55 L 725 48 L 724 48 L 721 45 L 717 44 L 716 43 L 669 43 L 668 42 L 666 42 L 660 36 L 658 27 L 659 26 L 660 20 L 666 14 L 668 14 L 669 13 L 717 13 L 723 18 L 728 19 L 729 18 L 733 17 L 733 14 L 734 12 L 724 2 L 720 0 L 665 0 Z M 485 0 L 483 3 L 483 43 L 484 44 L 484 72 L 483 73 L 483 81 L 484 82 L 484 84 L 489 90 L 490 90 L 494 94 L 495 94 L 500 98 L 558 98 L 560 97 L 560 96 L 562 94 L 563 94 L 573 84 L 573 83 L 575 81 L 575 2 L 572 0 L 565 0 L 562 2 L 562 77 L 559 80 L 559 81 L 553 86 L 504 86 L 503 84 L 502 84 L 496 77 L 496 2 L 494 0 Z M 335 2 L 320 16 L 320 18 L 319 19 L 319 23 L 320 24 L 320 79 L 319 80 L 320 82 L 323 85 L 323 86 L 324 86 L 327 89 L 327 90 L 328 90 L 333 95 L 334 95 L 335 97 L 337 98 L 397 98 L 399 97 L 399 96 L 401 95 L 411 85 L 411 82 L 412 81 L 410 79 L 410 78 L 402 76 L 391 86 L 343 86 L 341 85 L 333 77 L 333 75 L 332 74 L 332 44 L 333 43 L 333 40 L 332 39 L 333 38 L 333 23 L 334 21 L 341 14 L 343 13 L 394 13 L 401 21 L 407 21 L 408 20 L 410 20 L 412 16 L 411 13 L 401 3 L 394 0 L 339 0 Z M 168 3 L 158 12 L 158 13 L 154 18 L 154 82 L 155 84 L 161 90 L 162 90 L 169 97 L 171 98 L 203 98 L 204 99 L 205 98 L 207 98 L 208 99 L 228 99 L 229 98 L 233 97 L 234 95 L 236 94 L 246 84 L 246 82 L 247 81 L 247 20 L 246 19 L 245 15 L 238 8 L 238 7 L 237 7 L 233 3 L 230 2 L 228 0 L 174 0 Z M 170 17 L 171 17 L 176 13 L 226 13 L 233 20 L 234 22 L 234 68 L 235 69 L 235 71 L 234 72 L 235 73 L 234 74 L 234 77 L 229 83 L 228 83 L 225 86 L 175 86 L 169 81 L 166 76 L 166 40 L 167 39 L 167 28 L 166 27 L 166 24 Z M 2 0 L 0 2 L 0 83 L 1 85 L 6 90 L 7 90 L 9 92 L 9 93 L 10 93 L 16 98 L 84 98 L 85 97 L 85 88 L 83 86 L 20 86 L 14 81 L 14 80 L 12 78 L 12 3 L 10 0 Z" transform="translate(0 629)"/></g>
</svg>
